<?xml version="1.0" standalone="no"?>
<svg width="64" height="64" viewBox="0 0 315 384" version="1.1" xmlns="http://www.w3.org/2000/svg">
  <path d="M315 360v0v-362v0v0c0 -15 -12 -27 -27 -27h-1h-259v0h-1c-15 0 -27 12 -27 27v0v0v362v0v0c0 15 12 27 27 27v0h75v17v1c0 5 3 8 8 8v0v0h95v0c5 0 8 -3 8 -8v0v0v-18h75v0c15 0 27 -12 27 -27v0v0zM264 22v0v314h-25v-16v0c0 -5 -5 -9 -10 -9h-143v0v0 c-5 0 -10 4 -10 9v1v15h-25v-314h213zM102 237v0v0v-13v0v0c0 -3 -3 -6 -6 -6h-1v0h-12v0c-3 0 -7 3 -7 6v0v0v13c0 3 4 7 7 7h12v-1l1 1c3 0 6 -4 6 -7zM239 237v0v0v-13v0v0c0 -3 -4 -6 -7 -6h-98v0c-3 0 -7 3 -7 6v0v0v13c0 3 4 7 7 7h98v0c3 0 7 -4 7 -7zM102 186v0v0 v-13v0v0c0 -3 -3 -6 -6 -6h-1v0h-12v0c-3 0 -7 3 -7 6v0v0v13c0 3 4 7 7 7h12v-1l1 1c3 0 6 -4 6 -7zM239 186v0v0v-13v0v0c0 -3 -4 -6 -7 -6h-98v0c-3 0 -7 3 -7 6v0v0v13c0 3 4 7 7 7h98v0c3 0 7 -4 7 -7zM102 135v0v0v-13v0v0c0 -3 -3 -6 -6 -6h-1v0h-12v0 c-3 0 -7 3 -7 6v0v0v13c0 3 4 6 7 6h12v0h1c3 0 6 -3 6 -6zM239 135v0v0v-13v0v0c0 -3 -4 -6 -7 -6h-98v0c-3 0 -7 3 -7 6v0v0v13c0 3 4 6 7 6h98v0c3 0 7 -3 7 -6z" transform="matrix(1,0,0,-1,0,384)"/>
</svg>